<svg xmlns="http://www.w3.org/2000/svg" viewBox="0 0 100 100">
  <rect width="100" height="100" fill="#fff"/>
  <g fill="none" stroke="#111" stroke-width="5" stroke-linecap="round" stroke-linejoin="round">
    <path d="M18 57c0-18 16-31 39-31 18 0 31 11 31 27 0 8-4 16-12 19"/>
    <path d="M80 53c11 7 8 22-4 26"/>
    <path d="M27 59v20"/>
    <path d="M48 59v20"/>
    <path d="M69 58v20"/>
    <path d="M24 79h10M45 79h10M66 79h10"/>
    <path d="M19 55c-8-2-10-14-2-20 7 6 11 12 9 20"/>
    <circle cx="67" cy="40" r="2" fill="#111"/>
  </g>
</svg>
